<svg width="15" height="17" viewBox="0 0 15 17" fill="none" xmlns="http://www.w3.org/2000/svg">
<path d="M11.6339 8.89286C11.7411 8.77679 11.7411 8.59821 11.6339 8.49107L11.2232 8.08036C11.1161 7.97321 10.9375 7.97321 10.8214 8.08036L6.85714 12.0446L4.89286 10.0804C4.77679 9.97321 4.59821 9.97321 4.49107 10.0804L4.08036 10.4911C3.97321 10.5982 3.97321 10.7768 4.08036 10.8929L6.65179 13.4643C6.76786 13.5714 6.94643 13.5714 7.0625 13.4643L11.6339 8.89286ZM1.14286 15.1429V6H13.7143V15.1429H1.14286ZM4.57143 4.28571C4.57143 4.44643 4.44643 4.57143 4.28571 4.57143H3.71429C3.55357 4.57143 3.42857 4.44643 3.42857 4.28571V1.71428C3.42857 1.55357 3.55357 1.42857 3.71429 1.42857H4.28571C4.44643 1.42857 4.57143 1.55357 4.57143 1.71428V4.28571ZM11.4286 4.28571C11.4286 4.44643 11.3036 4.57143 11.1429 4.57143H10.5714C10.4107 4.57143 10.2857 4.44643 10.2857 4.28571V1.71428C10.2857 1.55357 10.4107 1.42857 10.5714 1.42857H11.1429C11.3036 1.42857 11.4286 1.55357 11.4286 1.71428V4.28571ZM14.8571 3.71428C14.8571 3.08928 14.3393 2.57143 13.7143 2.57143H12.5714V1.71428C12.5714 0.928571 11.9286 0.285713 11.1429 0.285713H10.5714C9.78572 0.285713 9.14286 0.928571 9.14286 1.71428V2.57143H5.71429V1.71428C5.71429 0.928571 5.07143 0.285713 4.28571 0.285713H3.71429C2.92857 0.285713 2.28571 0.928571 2.28571 1.71428V2.57143H1.14286C0.517857 2.57143 0 3.08928 0 3.71428V15.1429C0 15.7679 0.517857 16.2857 1.14286 16.2857H13.7143C14.3393 16.2857 14.8571 15.7679 14.8571 15.1429V3.71428Z" fill="black"/>
</svg>
