<svg width="20" height="13" viewBox="0 0 20 13" fill="none" xmlns="http://www.w3.org/2000/svg">
<path d="M18.5714 6.57143C16.6629 9.51786 13.5826 11.5714 10 11.5714C6.41741 11.5714 3.33705 9.51786 1.42857 6.57143C2.48884 4.9308 3.93973 3.52455 5.6808 2.6317C5.23438 3.39062 5 4.26116 5 5.14286C5 7.89955 7.2433 10.1429 10 10.1429C12.7567 10.1429 15 7.89955 15 5.14286C15 4.26116 14.7656 3.39062 14.3192 2.6317C16.0603 3.52455 17.5112 4.9308 18.5714 6.57143ZM10.5357 2.28571C10.5357 2.57589 10.2902 2.82143 10 2.82143C8.72768 2.82143 7.67857 3.87054 7.67857 5.14286C7.67857 5.43304 7.43304 5.67857 7.14286 5.67857C6.85268 5.67857 6.60714 5.43304 6.60714 5.14286C6.60714 3.27902 8.13616 1.75 10 1.75C10.2902 1.75 10.5357 1.99554 10.5357 2.28571ZM20 6.57143C20 6.29241 19.9107 6.03571 19.7768 5.80134C17.7232 2.4308 13.9621 0.142856 10 0.142856C6.03795 0.142856 2.27679 2.4308 0.223214 5.80134C0.0892857 6.03571 0 6.29241 0 6.57143C0 6.85045 0.0892857 7.10714 0.223214 7.34152C2.27679 10.7121 6.03795 13 10 13C13.9621 13 17.7232 10.7232 19.7768 7.34152C19.9107 7.10714 20 6.85045 20 6.57143Z" fill="white"/>
</svg>
