<svg width="16" height="11" viewBox="0 0 16 11" fill="none" xmlns="http://www.w3.org/2000/svg">
<path d="M14.8571 5.85714C13.3304 8.21429 10.8661 9.85714 8 9.85714C5.13393 9.85714 2.66964 8.21429 1.14286 5.85714C1.99107 4.54464 3.15179 3.41964 4.54464 2.70536C4.1875 3.3125 4 4.00893 4 4.71429C4 6.91964 5.79464 8.71429 8 8.71429C10.2054 8.71429 12 6.91964 12 4.71429C12 4.00893 11.8125 3.3125 11.4554 2.70536C12.8482 3.41964 14.0089 4.54464 14.8571 5.85714ZM8.42857 2.42857C8.42857 2.66071 8.23214 2.85714 8 2.85714C6.98214 2.85714 6.14286 3.69643 6.14286 4.71429C6.14286 4.94643 5.94643 5.14286 5.71429 5.14286C5.48214 5.14286 5.28571 4.94643 5.28571 4.71429C5.28571 3.22321 6.50893 2 8 2C8.23214 2 8.42857 2.19643 8.42857 2.42857ZM16 5.85714C16 5.63393 15.9286 5.42857 15.8214 5.24107C14.1786 2.54464 11.1696 0.714285 8 0.714285C4.83036 0.714285 1.82143 2.54464 0.178571 5.24107C0.0714286 5.42857 0 5.63393 0 5.85714C0 6.08036 0.0714286 6.28571 0.178571 6.47321C1.82143 9.16964 4.83036 11 8 11C11.1696 11 14.1786 9.17857 15.8214 6.47321C15.9286 6.28571 16 6.08036 16 5.85714Z" fill="#42495C"/>
</svg>
